<svg width="24" height="25" viewBox="0 0 24 25" fill="none" xmlns="http://www.w3.org/2000/svg">
<path d="M20.5 7.38916V13.3892C20.5 17.1602 20.5 19.0462 19.328 20.2172C18.157 21.3892 16.271 21.3892 12.5 21.3892H11.5C7.729 21.3892 5.843 21.3892 4.672 20.2172C3.5 19.0462 3.5 17.1602 3.5 13.3892V7.38916" stroke="#059669" stroke-width="1.5" stroke-linecap="round"/>
<path d="M2 5.38916C2 4.44616 2 3.97516 2.293 3.68216C2.586 3.38916 3.057 3.38916 4 3.38916H20C20.943 3.38916 21.414 3.38916 21.707 3.68216C22 3.97516 22 4.44616 22 5.38916C22 6.33216 22 6.80316 21.707 7.09616C21.414 7.38916 20.943 7.38916 20 7.38916H4C3.057 7.38916 2.586 7.38916 2.293 7.09616C2 6.80316 2 6.33216 2 5.38916Z" stroke="#059669" stroke-width="1.5"/>
<path d="M9.5 13.7892L10.929 15.3892L14.5 11.3892" stroke="#059669" stroke-width="1.5" stroke-linecap="round" stroke-linejoin="round"/>
</svg>
