<svg width="24" height="25" viewBox="0 0 24 25" fill="none" xmlns="http://www.w3.org/2000/svg">
<path d="M3 22.3892H21" stroke="#D97706" stroke-width="1.5" stroke-linecap="round" stroke-linejoin="round"/>
<path d="M3 11.3892C3 10.4462 3 9.97516 3.293 9.68216C3.586 9.38916 4.057 9.38916 5 9.38916C5.943 9.38916 6.414 9.38916 6.707 9.68216C7 9.97516 7 10.4462 7 11.3892V17.3892C7 18.3322 7 18.8032 6.707 19.0962C6.414 19.3892 5.943 19.3892 5 19.3892C4.057 19.3892 3.586 19.3892 3.293 19.0962C3 18.8032 3 18.3322 3 17.3892V11.3892ZM10 7.38916C10 6.44616 10 5.97516 10.293 5.68216C10.586 5.38916 11.057 5.38916 12 5.38916C12.943 5.38916 13.414 5.38916 13.707 5.68216C14 5.97516 14 6.44616 14 7.38916V17.3892C14 18.3322 14 18.8032 13.707 19.0962C13.414 19.3892 12.943 19.3892 12 19.3892C11.057 19.3892 10.586 19.3892 10.293 19.0962C10 18.8032 10 18.3322 10 17.3892V7.38916ZM17 4.38916C17 3.44616 17 2.97516 17.293 2.68216C17.586 2.38916 18.057 2.38916 19 2.38916C19.943 2.38916 20.414 2.38916 20.707 2.68216C21 2.97516 21 3.44616 21 4.38916V17.3892C21 18.3322 21 18.8032 20.707 19.0962C20.414 19.3892 19.943 19.3892 19 19.3892C18.057 19.3892 17.586 19.3892 17.293 19.0962C17 18.8032 17 18.3322 17 17.3892V4.38916Z" stroke="#D97706" stroke-width="1.5"/>
</svg>
