<svg width="24" height="25" viewBox="0 0 24 25" fill="none" xmlns="http://www.w3.org/2000/svg">
<path d="M2 12.3892C2 7.67516 2 5.31816 3.464 3.85316C4.93 2.38916 7.286 2.38916 12 2.38916C16.714 2.38916 19.071 2.38916 20.535 3.85316C22 5.31916 22 7.67516 22 12.3892C22 17.1032 22 19.4602 20.535 20.9242C19.072 22.3892 16.714 22.3892 12 22.3892C7.286 22.3892 4.929 22.3892 3.464 20.9242C2 19.4612 2 17.1032 2 12.3892Z" stroke="#E52D3C" stroke-width="1.5"/>
<path d="M7 14.3892L9.293 12.0962C9.48053 11.9087 9.73484 11.8034 10 11.8034C10.2652 11.8034 10.5195 11.9087 10.707 12.0962L12.293 13.6822C12.4805 13.8696 12.7348 13.9749 13 13.9749C13.2652 13.9749 13.5195 13.8696 13.707 13.6822L17 10.3892M17 10.3892V12.8892M17 10.3892H14.5" stroke="#E52D3C" stroke-width="1.5" stroke-linecap="round" stroke-linejoin="round"/>
</svg>
